<?xml version="1.0" encoding="utf-8"?>
<!-- Generator: Adobe Illustrator 23.0.1, SVG Export Plug-In . SVG Version: 6.00 Build 0)  -->
<svg version="1.1" xmlns="http://www.w3.org/2000/svg" xmlns:xlink="http://www.w3.org/1999/xlink" x="0px" y="0px"
	 viewBox="0 0 800 600" style="enable-background:new 0 0 800 600;" xml:space="preserve">
<style type="text/css">
	.st0{fill:#808080;stroke:#FFFFFF;stroke-width:0.5;stroke-linecap:round;stroke-linejoin:round;}
	.st1{font-family:'Roboto-Regular';}
	.st2{font-size:14px;}
</style>
<g id="Gabon">
	<path class="st0" d="M376.272,43.524l0.552-0.91l0.339-1.012l0.151-1.057v-1.079l0.151-1.413l0.544-0.985l0.668-0.91l0.517-1.213
		l-0.143-1.146l-0.392-1.124l0.16-0.785l23.017-0.847l2.246-0.798L405.171,30l1.203,0.129l0.847,0.482l1.755,1.44l4.429,1.454
		l1.328,0.147l2.932-0.401l7.557,0.236l6.585-0.575l6.532,0.41l5.07-0.388l1.56,0.058l3.484,0.553l3.743,0.161l1.72-0.326
		l3.315-1.11l1.702-0.245l0.9-0.236l1.8-0.963l0.82-0.098l1.069,0.388l2.825,1.726l1.56,0.317l4.749-1.088l3.315,0.228l4.812,1.569
		l1.488,0.468l2.014-0.468l1.372,1.035l2.059,0.758l11.664,1.743l1.747-0.343l1.203-0.763l0.989-0.798l1.087-0.455l1.47,0.415
		l1.969,0.856l1.702,0.375l0.74-1.052l1.212,0.499l1.096,0.089l0.98-0.361l0.882-0.82l2.593,0.932l1.497,0.25l0.945-0.268
		l1.185-0.566l1.381,0.321l2.415,1.043l3.671-0.459l0.82-0.339l1.729-1.663l0.998-0.718l0.749-0.299l2.629,0.116l2.406,0.473
		l1.203,0.932l0.57,0.245l0.802,0.009l1.239-0.513l0.597-0.138l0.971,0.397l1.337,0.963l1.292,1.164l0.82,1.012l0.365,1.266
		l-0.356,2.595l0.027,2.131l0.027,5.174l-0.303,2.773l-0.882,2.069l-3.074,1.696l-0.517,0.395l-1.568,1.716l-0.455,0.317
		l-0.784,0.31l-0.027,0.727l0.49,1.616l-0.178,0.871l-0.445,0.602l-0.57,0.537l-0.579,0.693l-0.588,1.003l-0.579,1.351l-1.025,0.294
		l-0.356,0.392l1.114,1.529l0.695,1.558l0.446,0.644l0.356,1.021l-0.125,1.382l-0.891,3.167l-0.659,1.299l-0.882,1.148l-1.087,0.633
		l0.633,1.48l-0.25,1.509l-0.588,1.62l-0.33,1.816l0.517,3.927l-0.276,2.073l-1.479,1.707l1.408,2.505l1.595,2.206l0.588-0.64
		l0.98,0.751l0.606,1.018l0.107,1.179l-0.517,1.224l1.773,0.907l1.55,4.172l1.381,0.865l-0.089,0.72l0.116,4.078l-0.054,0.704
		l0.036,0.662l0.285,0.579l0.722,1.047l-0.187,0.455l-0.526,0.303l-0.811,1.729l-1.23,0.829l-1.461,0.499l-1.212,0.169l-0.686,0.57
		l-0.321,1.203l-0.642,1.061l-1.64,0.169l0.873,0.766l1.034,0.419l0.82,0.553l0.265,1.194l-71.567-1.042l-0.013,0.731l-0.16,0.865
		l-0.12,0.303l-0.134,0.254l-0.989,1.226l-0.214,0.33l-0.12,0.33l-0.067,0.285l-0.134,1.128l-0.094,0.29l-0.294,0.428l-1.087,1.096
		l-1.617,3.209l-0.227,0.339l-1.35,1.533l-0.254,0.463l-0.187,0.41l-0.134,0.455l-0.954,2.063l-0.682,1.145l-2.473,3.146
		l-0.067,0.143l-0.04,0.089l-0.321,1.372l-0.053,1.738l0.254,3.146l-0.04,0.526l-0.227,0.931l-0.053,0.428l0.04,0.352l0.174,0.263
		l0.094,0.183l0.053,0.299l-0.468,2.402l-0.348,0.758l-0.628,0.677l-62.025,42.076l-0.708,0.691l-0.08,0.526l0.428,0.744l8.76,9.254
		l-66.891-0.143l0.548-0.49l0.535-0.766l0.187-0.196l0.321-0.254l0.628-0.771l0.441-1.056l0.107-0.432l0.053-0.477l-0.08-0.998
		l-0.615-2.865l0.174-0.86l0.187-0.486l0.468-0.365l0.294-0.298l0.281-0.361l0.134-0.397l0.16-0.708l0.254-2.264l1.782-6.363
		l0.374-0.829l1.016-1.751l0.12-0.307l0.281-0.998l0.174-0.401l0.307-0.535l0.388-0.472l0.659-1.007l0.294-0.695l0.949-3.524
		l0.12-0.227l0.12-0.201l0.414-0.481l1.297-1.052l0.187-0.347l0.187-0.575l0.414-2.027l0.86-2.366l0.174-1.101l0.201-5.949
		l-0.281-1.889l-0.82-3.431l-0.361-0.223l-0.749,0.013l-44.978,15.533l-1.257,0.245l-0.686-0.169l-0.428-0.798l-0.735-2.509
		l-0.361-0.811l-0.468-0.789l-1.337-1.818l-0.094-1.216l0.348-1.693l1.243-3.32l0.976-1.724l1.328-4.331l0.467-12.252l1.988,0.006
		l25.806,0.089l19.522,0.061l6.293,0.02l25.824,0.089l-0.134-22.594l-0.134-22.594l-0.107-18.068l-0.027-4.526l-0.134-22.607
		l-0.036-6.928L376.272,43.524z"/>
	<path class="st0" d="M536.883,124.877l0.002,0.01l0.909,0.12l1.755-0.281l2.967,0.223l1.782-0.365l1.577-0.686l1.604-1.961
		l1.568-0.223l1.461-0.392l0.552-1.529l0.695-0.646l1.684-0.464l1.88-0.214l1.31,0.12l3.012,1.074l2.664,0.512l2.602-0.013
		l2.887-0.535l1.114-0.802l1.969-2.647l3.092-1.203l1.123-0.923l1.221-0.798l1.711-0.156l0.811,0.036l0.793-0.053l1.586-0.292
		l0.557-0.276l1.034-0.809l0.588-0.223l0.437,0.089l1.007,0.484l0.258,0.089l0.927-0.35l0.285-0.187l1.052-2.063l0.811-2.229
		l0.071-0.41l1.221-0.294l16.281,1.518l1.488,0.33l1.568,0.938l1.274,1.25l1.354,0.969l1.827,0.111l3.083-1.192l1.55-0.401
		l1.729,0.169l3.395,0.929l0.749,0.508l0.552,0.573l0.651,0.472l1.025,0.196l0.134,0.478l0.133,0.478l0.74,0.477l0.98,0.41
		l0.927,0.722l0.517,0.963l1.283,5.384l0.232,2.255l-0.089,6.506l0.704,2.201l1.346,1.8l4.135,1.907l1.176,1.756l1.346,4.412
		l0.953,2.014l1.212,1.889l1.444,1.702l1.64,1.493l2.058,1.038l0.659,0.691l-0.16,1.172l-0.793,0.802l-1.025,0.61l-0.651,0.7
		l0.294,1.065l0.57,4.015l-2.95,3.551l-3.974,3.409l-2.495,3.587l-0.258,4.425l-0.57,1.845l-6.389,5.525l-0.321,0.454l-0.49,0.356
		l-1.158,0.446l-4.331,0.232l-4.839-0.544l-4.268,0.579l-2.62,3.636l0.971,1.8l0.535,1.764l-0.339,1.782l-1.613,1.854l-6.371,3.511
		l-1.836,1.952l-3.057,6.853l-2.932,4.367l-0.392,2.058l0.428,2.165l0.838,2.673l0.41,2.103l0.365,6.229l0.561,0.588l1.007,0.027
		l1.034,0.187l0.677,1.06l-0.134,0.9l-1.221,1.577l-0.365,0.855l0.169,1.265l0.446,0.962l0.089,0.909l-0.9,1.114l-0.882,0.838
		l-1.071,1.422l-0.038-0.014l-6.367-2.228l-4.242-3.065l-1.871-1.109l-1.724-0.708l-17.234-3.734l-1.297-0.125l-3.346,0.192
		l-16.187-0.655l-1.729,0.013l-0.722-0.16l-0.922-0.41l-0.842-0.503l-0.936-0.356l-2.277,0.089l-1.043-0.178l-0.976-0.401
		l-0.869-0.579l-3.279-1.595l-0.588-0.668l-0.374-0.775l-1.635-5.222l-0.147-1.702l-0.388-0.722l-1.417-0.985l-1.19-1.216
		l-0.722-0.312l-2.571,0.392h-0.775l-0.695-0.129l-0.495-0.174l-0.74-0.334l-1.631-0.985l-1.39-1.056l-0.682-0.218l-2.491,2.259
		l-0.989,0.548l-1.243,0.196l-0.989-0.129l-2.638-0.78l-2.125-0.33l-1.595,0.143l-1.003-0.316l-0.775-0.628l-0.441-0.771
		l-0.668-0.78l-0.713-0.588l-0.722-0.731l-0.882-0.472l-1.15-0.192l-5.618,2.731l-0.842,0.178l-0.833-0.147l-0.802-0.481
		l-0.762-0.682l-0.628-0.74l-0.588-0.446l-0.454,0.281l-13.046,58.261l-13.554,6.875l-63.616,23.402l-2.593-5.445l-0.298-0.842
		l-1.363-6.973l-1.297-2.78l-1.043-1.533l-0.735-0.824l-3.212-2.669l-0.708-0.824l-0.508-0.936l-1.341-4.442l-0.187-1.337
		l0.094-2.161l-0.094-1.359l-0.241-1.136l-0.454-0.882l-4.482-6.715l-0.455-0.833l-0.267-0.847l-0.147-0.864l0.013-2.045
		l0.267-2.464l-0.348-3.885l-0.695-2.905l-0.294-0.637l-0.575-0.548l-0.762-0.267l-0.82-0.12l-0.735-0.201l-0.481-0.446
		l-0.281-0.414l-0.294-0.704l-0.013-0.775l0.214-0.864l1.444-2.713l0.753-2.691l0.708-0.842l2.179-1.6l1.256-1.185l12.124-6.3
		l1.47-0.254l0.949-0.374l1.234-1.038l1.016-0.695l1.671-1.377l0.508-0.904l0.307-1.172l-0.147-1.221l0.414-2.762l-8.76-9.254
		l-0.428-0.744l0.08-0.526l0.708-0.691l62.025-42.076l0.628-0.677l0.348-0.758l0.468-2.402l-0.053-0.299l-0.094-0.183l-0.174-0.263
		l-0.04-0.352l0.053-0.428l0.227-0.931l0.04-0.526l-0.254-3.146l0.053-1.738l0.321-1.372l0.04-0.089l0.067-0.143l2.473-3.146
		l0.682-1.145l0.954-2.063l0.134-0.455l0.187-0.41l0.254-0.463l1.35-1.533l0.227-0.339l1.617-3.209l1.087-1.096l0.294-0.428
		l0.094-0.29l0.134-1.128l0.067-0.285l0.12-0.33l0.214-0.33l0.989-1.226l0.134-0.254l0.12-0.303l0.16-0.865l0.013-0.731
		L536.883,124.877z"/>
	<path class="st0" d="M597.509,238.239l-3.91,5.19l-0.909,2.139l-0.08,2.442l3.983,4.75l0.517,0.383l0.552-0.107l1.141-0.419
		l0.365-0.383l0.232-0.624l0.33-0.57l0.668-0.232l3.083,0.356l0.838,0.33l0.695,0.579l0.624,0.838l3.137-0.829l3.457,0.535
		l3.155,1.533l2.246,2.201l1.452,2.95l1.06,3.457l0.633,3.556l0.151,3.226l1.452-0.775l1.426-0.49l1.479-0.009l1.577,0.642
		l1.399,0.33l1.319-0.446l1.337-0.633l1.479-0.232l2.406,0.695l3.279,1.453l2.905,1.818l1.907,2.566l3.431,2.362l1.06,1.132
		l2.023,4.162l0.775,2.584l-0.588,2.798l-3.502,7.575l-0.481,2.112l0.018,2.121l0.579,2.192l0.365,2.62l-0.971,1.845l-1.524,1.676
		l-1.328,2.121l-0.454,1.979l-0.428,3.725l-0.909,1.836l-0.018,1.239l2.46,6.765l0.918,1.863l0.294,1.007l-0.071,0.74l-0.481,1.488
		l0.027,0.74l0.606,1.052l0.354,0.349l1.464,1.442l0.668,1.114l0.143,0.775l-0.089,2.692l-0.347,1.934l-0.312,0.829l-0.481,0.909
		l-0.624,0.704l-0.713,0.553l-0.597,0.624l-0.241,0.954l0.517,1.649l1.265,1.31l3.03,2.006l0.481,1.792l-0.615,0.99l-1.096,0.704
		l-0.998,0.963l-0.312,0.811l-0.143,2.077l-1.087,2.496l1.132,1.123l0.962,1.551l0.036,1.302l-2.825,0.535l-0.553,0.749
		l-0.347,0.998l-0.579,0.874l-0.82,0.597l-0.811,0.401l-1.764,0.624l-0.775,0.686l0.57,0.642l1.675,0.936l1.043,3.495l1.47,0.455
		l1.818,0.303l0.659,0.57l-2.032,1.23l-1.043,1.159l-0.552,1.863l-0.267,6.874l-0.526,2.22l-0.053,0.731l0.659,3.762l-0.624,1.186
		l-2.29,1.248l-0.186,0.073l-10.035,3.922l-0.615,0.624l-0.428,0.642l-0.214,0.767l0.044,0.99l-0.454,0.811l0.053,0.535l0.446,0.446
		l0.704,0.517l0.419,0.731l-0.089,0.856l-0.57,1.703l-0.481,4.548l-0.401,1.231l-0.588,0.589l-1.488,0.526l-0.463,0.41l-0.098,0.847
		l0.535,1.543l-0.018,0.633l-1.149,1.257l-2.958,1.079l-1.167,0.91l0.276,2.952l6.532,5.529l0.642,2.747l-0.374-0.241l-4.117,0.963
		l-0.856,0.393l-0.784,0.526l-1.648,1.4l-0.704,0.74l-0.392,0.874l0.036,2.265l-0.606,0.749l-0.829,0.651l-0.731,0.767l-0.536,1.536
		l-0.391,1.122l-0.517,0.651l-0.784,0.116l-0.855-0.357l-1.328-0.767l-0.864-0.071l-0.544,0.098l-3.965,1.24l-0.659-0.009
		l-0.552-0.508l-0.258-1.579l-0.793-0.58h-0.838l-0.829,0.375l-1.488,0.901l-1.809,0.375l-2.112-0.107l-1.969-0.651l-1.408-1.24
		l0.098-0.428l0.062-3.327l0.642-0.758l1.791-0.901l1.221-2.604l1.025-0.633l0.365-0.562l-1.176-1.605l-0.891-0.633l-0.909-0.437
		l-0.668-0.633l-0.285-2.399l-0.579-0.847l-1.577-1.605l-1.06-1.587l-1.961-4.004l-0.784-3.567l-0.749-1.819l-1.043-1.632
		l-1.185-1.141l-0.909-0.651l-0.276-0.107l-0.196,0.464l-1.8,2.684l-0.909,1.721l-0.232,0.954l-0.134,1.703l-0.316,0.901
		l-0.695,0.963l-6.559,6.358l-0.579,0.892l-0.25,1.828l-0.383,0.767l-0.864,0.589l-2.058,0.66l-1.025,0.517l-0.855,0.767
		l-1.256,1.579l-0.731,0.722l-2.798,1.935l-0.855,0.829l-0.472,0.829l-0.241,0.803l-0.392,0.696l-0.909,0.517l-0.445-0.143
		l-0.722-1.061l-0.552-0.143l-1.212,0.375l-0.445-0.009l-1.871-0.303l-1.657,0.41l-1.533-0.178l-15.033-5.583l-0.847-0.187
		l-0.998,0.134l-1.648,0.963l-0.945,0.196l-1.8-0.437l-5.561-2.524l-2.139-0.384l-1.114,0.33l-1.56,1.562l-0.997,0.998l-1.158,0.062
		l-0.25-0.517l0.445-0.803l0.962-0.812l0.401-0.606l0.348-0.722l0.241-0.758l0.062-0.74l0.178-0.874l0.481-0.704l0.722-0.767
		l-0.214-0.972l-0.41-0.089l-0.526,0.018l-0.615-0.66l-0.232-0.696l-0.437-2.328l-0.811-0.99l-1.613-2.64l-0.749-0.731l-2.094,1.07
		l-1.23,0.045l-0.374-1.534l-0.062-0.892l-0.33-0.606l-1.132-1.106l-0.205-0.571l0.152-0.544l0.365-0.651l0.16-0.41l0.339-0.571
		l0.053-0.499l-1.622-0.419l-0.187-0.446l0.089-0.517v-0.401l0.151-0.036l-0.339-1.971l-0.383-0.517l-1.346-1.32l-0.499-0.633
		l-0.775-1.828l-1.898-6.259l-0.998-2.104l-1.453-0.999l-3.645-1.177l-0.383-0.277l0.165-0.614l1.19-3.143l0.588-2.367l1.234-2.666
		l-0.013-0.807l-0.307-1.681l0.187-0.869l6.38-13.172l1.497-1.926l0.468-0.744l0.294-0.829l0.713-0.923l0.561-0.994l0.361-1.007
		l0.2-2.496l0.254-0.811l0.762-1.185l0.775-0.869l0.842-0.575l0.74-0.651l0.602-0.967l0.468-1.462l0.922-0.793l2.513-1.341
		l0.686-0.085l0.441,0.004l0.668,0.107l0.748-0.027l0.829-0.259l0.855-0.53l0.833-0.74l0.749-0.833l1.23-1.609l0.695-0.713
		l0.815-0.481l1.528-0.588l0.508-0.615l1.444-2.531l0.882-0.789l0.922-0.548l0.833-0.312l0.668-1.025l0.347-1.707l0.04-3.565
		l-0.294-3.244l-0.833-3.253l-0.036-0.557l0.74-0.628l6.296,3.066l1.497,1.257l0.673-0.218l0.517-0.477l13.981-17.018l10.733-15.872
		l0.134-1.43l-0.575-2.045l-21.489-42.227l-0.829-0.717l-0.842-0.388l-0.855-0.187l-0.806-0.316l-0.695-0.579l-0.441-1.096
		l-0.201-0.967l-0.147-1.845l-0.802-3.484l-0.468-0.722l-0.521-0.57l-0.321-0.628l0.548-0.985l2.085-2.994l2.21-4.282l0.214-4.402
		l16.187,0.655l3.346-0.192l1.297,0.125l17.234,3.734l1.724,0.708l1.871,1.109l4.242,3.065l6.367,2.228L597.509,238.239z"/>
	<path class="st0" d="M498.612,393.341l-5.695-4.127l-3.671-1.524l-4.242,0.116l-0.927,0.339l-4.224,2.835l-0.526,0.49l-0.428,0.562
		l-0.526,1.097l-0.152,0.749l-0.062,0.936l-0.374,0.874l-1.114,0.606l-1.515-0.473l-1.636-1.736l0.331-1.84l-0.441-1.293
		l-0.602-0.263l-0.789-0.218l-0.873-0.036l-6.073,0.548l-0.842-0.058l-10.622-3.655l-0.855-0.468l-5.338-4.484l-1.127-1.244
		l-5.739-7.783l-0.775-0.597l-0.842-0.316l-0.896-0.513l-0.873-0.736l-0.815-1.934l-0.241-1.025l-0.027-0.816l0.147-0.464
		l0.214-0.379l0.267-0.33l0.628-0.584l0.499-0.646l0.441-0.744l0.08-0.187l0.214-0.731l0.174-2.077l-0.281-3.187l-1.234-4.069
		l-0.187-0.989v-1.649l-0.067-0.508l-0.521-0.909l-3.061-3.779l-1.769-1.76l-0.748-0.455l-3.293-1.471l-0.722-0.468l-3.128-2.999
		l-4.188-2.977l-1.377-1.48l-3.065-4.247l-0.481-0.9l-0.789-2.629l-0.227-1.845l0.053-1.399l0.16-0.753l-0.027-0.414l-0.241-0.258
		l-0.847-0.138l-0.842,0.218l-0.882,0.352l-5.952,3.73l-2.544,0.597l-1.724,0.762l-0.855,0.263l-0.896-0.049l-1.702-0.441
		l-0.842-0.334l-0.602-0.775l-0.227-1.52l0.321-1.618l0.147-1.435l-0.174-1.725l-0.227-1.136l-0.535-1.689l-0.254-0.468
		l-0.214-0.285l-1.662-1.783l-0.495-0.806l-0.334-0.838l-0.201-0.936l-0.201-2.112l-0.334-1.466l-0.053-0.842l0.561-4.946
		l0.401-1.029l0.682-1.127l2.303-2.665l1.631-2.558l63.616-23.402l13.554-6.875l13.046-58.261l0.454-0.281l0.588,0.446l0.628,0.74
		l0.762,0.682l0.802,0.481l0.833,0.147l0.842-0.178l5.618-2.731l1.15,0.192l0.882,0.472l0.722,0.731l0.713,0.588l0.668,0.78
		l0.441,0.771l0.775,0.628l1.003,0.316l1.595-0.143l2.125,0.33l2.638,0.78l0.989,0.129l1.243-0.196l0.989-0.548l2.491-2.259
		l0.682,0.218l1.39,1.056l1.631,0.985l0.74,0.334l0.495,0.174l0.695,0.129h0.775l2.571-0.392l0.722,0.312l1.19,1.216l1.417,0.985
		l0.388,0.722l0.147,1.702l1.635,5.222l0.374,0.775l0.588,0.668l3.279,1.595l0.869,0.579l0.976,0.401l1.043,0.178l2.277-0.089
		l0.936,0.356l0.842,0.503l0.922,0.41l0.722,0.16l1.729-0.013l-0.214,4.402l-2.21,4.282l-2.085,2.994l-0.548,0.985l0.321,0.628
		l0.521,0.57l0.468,0.722l0.802,3.484l0.147,1.845l0.201,0.967l0.441,1.096l0.695,0.579l0.806,0.316l0.855,0.187l0.842,0.388
		l0.829,0.717l21.489,42.227l0.575,2.045l-0.134,1.43l-10.733,15.872l-13.981,17.018l-0.517,0.477l-0.673,0.218l-1.497-1.257
		l-6.296-3.066l-0.74,0.628l0.036,0.557l0.833,3.253l0.294,3.244l-0.04,3.565l-0.347,1.707l-0.668,1.025l-0.833,0.312l-0.922,0.548
		l-0.882,0.789l-1.444,2.531l-0.508,0.615l-1.528,0.588l-0.815,0.481l-0.695,0.713l-1.23,1.609l-0.749,0.833l-0.833,0.74
		l-0.855,0.53l-0.829,0.259l-0.748,0.027l-0.668-0.107l-0.441-0.004l-0.686,0.085l-2.513,1.341l-0.922,0.793l-0.468,1.462
		l-0.602,0.967l-0.74,0.651l-0.842,0.575l-0.775,0.869l-0.762,1.185l-0.254,0.811l-0.2,2.496l-0.361,1.007l-0.561,0.994
		l-0.713,0.923L510,365.353l-0.468,0.744l-1.497,1.926l-6.38,13.172l-0.187,0.869l0.307,1.681l0.013,0.807l-1.234,2.666
		l-0.588,2.367l-1.19,3.143L498.612,393.341z"/>
	<path class="st0" d="M473.522,394.086l-1.028-1.091l-0.962-0.223l-0.33,1.168l0.722,9.3l0.74,3.486l1.791,2.764l3.359,1.525
		l-0.383,1.489l-1.551,2.443l-0.615,1.311l-0.16,1.275l0.615,3.567l-0.597,2.479l-1.158,2.97l-0.624,2.791l0.98,1.9l-34.227,7.34
		l-2.673-0.294l-2.638-1.81l-2.923-3.63l-1.56-1.151l-0.891-0.526l-2.7,1.338l-3.636,1.168l-3.11,0.615l-1.916,0.767l-2.923,2.694
		l-1.435,0.838l-1.426-0.116l-1.568-0.829l-2.914-2.283l-0.659-0.767l-0.348-0.722l-0.535-0.669l-1.185-0.606l-4.357-1.32
		l-3.19-0.107l-0.187,0.053l-0.686,1.694l1.854,5.03l0.312,1.9l-0.624,4.781l0.036,1.507l0.668,1.82l2.183,3.488l0.811,1.936
		l0.463,2.203v1.793l-0.419,1.793l-0.793,2.186l-6.282,10.259l-0.164,0.629l-0.028-0.036l-6.051-7.784l-6.888-7.105l-6.795-5.517
		l-4.99-5.637l-1.648-1.467l-0.414-0.763l-1.631-5.994l-0.401-0.843l-0.708-0.803l-7.133-4.366l-0.708-0.691l-0.454-0.803
		l-0.241-0.829l-0.187-0.887l-0.267-0.847l-0.454-0.856l-0.646-0.803l-0.869-0.691l-0.962-0.495l-1.257-0.357l-37.315,4.842
		l-3.466-5.529l-1.283-1.462l-0.388-0.219l-0.348-0.294l-0.321-0.37l-2.33-3.415l-0.535-1.262l-1.591-5.925l-0.187-0.428
		l-0.307-0.348l-1.564-1.132l-0.753-0.825l-0.481-0.941l-0.267-1.226v-0.976l0.134-0.927l1.074-2.809l0.134-0.869l-0.272-0.865
		l-0.909-0.589l-1.738-0.602l-1.778-1.489l-3.627-1.979l-0.815-0.027l-0.806,0.468l-0.762,0.615l-0.842,0.428l-0.896,0.169
		l-0.936-0.036l-6.073-1.476h-1.715l-0.896-0.437l-0.962-0.878l-0.909-0.459l-1.969-1.36l-2.713-0.735l-2.758-1.493l-4.309-1.4
		l-1.751-0.272l-2.865-0.067l-0.762-0.08l-0.789-0.352l-0.815-0.602l-0.775-0.767l-2.878-3.495l-0.481-0.856l-1.029-2.692
		l-0.495-0.874l-1.194-1.636l-1.23-1.297l-0.12-0.731l0.802-0.842l0.735-0.615l0.495-0.762l0.053-0.842l0.201-0.918l0.847-1.052
		l0.829-0.539l0.882-0.201l0.815-0.036l0.802-0.125l0.789-0.388l0.699-1.132l0.749-1.756l0.521-2.71l0.12-1.529l-0.08-1.199
		l-0.936-4.453l-0.174-1.698l0.04-1.658l0.294-0.94l0.508-0.98l6.06-5.807l1.216-2.496l0.468-3.454l7.401-7.621l2.593-1.653
		l1.141-0.468l1.323-0.383l2.152-0.134l1.381,0.129l2.045,0.441l5.084,0.098l0.976,0.544l0.98,0.891l0.628-0.677l0.307-0.784
		l0.201-0.793l0.388-0.677l0.909-0.392l0.481-0.673l0.201-0.749l0.04-0.833l0.187-0.798l0.468-0.789l0.726-0.731l1.176-1.618
		l0.428-0.865l0.174-0.838l-0.201-0.807l-0.468-0.655l-0.348-0.633l0.013-0.414l0.134-0.272l0.414-0.334l3.172-1.493l0.708-0.454
		l0.414-0.441l3.462-5.971l0.218-0.842l-0.232-1.671l0.027-0.824l0.312-1.707l0.762-2.709l0.535-0.78l0.842-0.735l4.362-2.602
		l0.989-0.887l0.815-0.869l2.491-3.725l0.695-0.762l0.735-0.561l0.602-0.561l0.241-0.726l-0.254-0.802l-1.043-1.644l-0.08-0.668
		l0.495-0.401l2.032,0.446l0.953-0.392l0.642-0.548l0.855-0.397l0.949-0.103l1.243,0.187l0.927,0.343l0.722,0.878l0.468,0.78
		l0.775,0.624l0.922,0.196l1.136-0.316l0.807-0.615l1.069-1.497l0.775-0.454l0.882-0.009l1.836,1.27l0.789,0.254l0.708-0.432
		l1.163-1.439l0.775-0.557l0.896-0.374l1.729-0.472l15.452-0.887l3.493-0.789l1.016-0.018l1.15,0.267l13.246,10.208l4.99,2.366
		l5.084,1.769l2.811,0.419l7.49,0.33l-1.631,2.558l-2.303,2.665l-0.682,1.127l-0.401,1.029l-0.561,4.946l0.053,0.842l0.334,1.466
		l0.201,2.112l0.201,0.936l0.334,0.838l0.495,0.806l1.662,1.783l0.214,0.285l0.254,0.468l0.535,1.689l0.227,1.136l0.174,1.725
		l-0.147,1.435l-0.321,1.618l0.227,1.52l0.602,0.775l0.842,0.334l1.702,0.441l0.896,0.049l0.855-0.263l1.724-0.762l2.544-0.597
		l5.952-3.73l0.882-0.352l0.842-0.218l0.847,0.138l0.241,0.258l0.027,0.414l-0.16,0.753l-0.053,1.399l0.227,1.845l0.789,2.629
		l0.481,0.9l3.065,4.247l1.377,1.48l4.188,2.977l3.128,2.999l0.722,0.468l3.293,1.471l0.748,0.455l1.769,1.76l3.061,3.779
		l0.521,0.909l0.067,0.508v1.649l0.187,0.989l1.234,4.069l0.281,3.187l-0.174,2.077l-0.214,0.731l-0.08,0.187l-0.441,0.744
		l-0.499,0.646l-0.628,0.584l-0.267,0.33l-0.214,0.379l-0.147,0.464l0.027,0.816l0.241,1.025l0.815,1.934l0.873,0.736l0.896,0.513
		l0.842,0.316l0.775,0.597l5.739,7.783l1.127,1.244l5.338,4.484l0.855,0.468l10.622,3.655l0.842,0.058l6.073-0.548l0.873,0.036
		l0.789,0.218l0.602,0.263l0.441,1.293L473.522,394.086z"/>
	<path class="st0" d="M394.679,472.241l-0.861,3.305l0.445,2.025l1.479-0.25l3.493-2.453l2.451-0.75l1.72,0.562l1.408,1.588
		l2.976,4.327l6.559,6.978l1.265,1.99v1.856l-2.13,1.312l-1.987,0.205l-1.185-0.098l-0.9,0.544l-1.141,2.142l-0.428,1.517
		l-0.08,5.979l-0.142,0.491l0.16,0.33l0.74,0.741l0.668,0.5l4.883,2.044l1.818,1.089l3.475,2.865l3.137,1.491l4.09,1.125
		l3.333,1.562l0.909,2.785l-1.158,1.857l-3.716,2.785l-1.167,2.08l-4.919,11.641l-0.241,2l0.855,1.804l1.782,1.062l2.041,0.661
		l1.658,0.893l0.606,1.831l-0.677,1.946l-1.524,1.822l-1.862,1.393l-1.515,0.579l-0.214,0.082l-1.604-0.045l-4.963-1.42
		l-1.729-0.197l-4.696,0.607l-1.871-0.634l-1.444-1.563l-6.844-11.09l-3.199-2.455l-4.322-0.625l-2.379,1.634l-1.613,2.661
		l-1.925,2.473l-3.288,1.098l-3.547,0.714l-2.78,1.714l-2.566,2.116l-2.941,1.911l-2.246,1.92l-1.417,2.724l-5.731,15.471
		L358.333,570l-1.671-1.085l-2.11-1.339l-4.214-4.406l-1.344-5.588l-0.814-1.526l-0.561-1.561l-0.323-1.716l-0.119-1.983
		l-1.798-1.998l-2.882-2.105l-10.578-9.001l-13.901-9.59l-0.696-3.887l0.098-1.328l0.505-1.497l0.309-1.94l-0.351-1.666
		l-0.814-1.624l-1.249-1.014l-1.915-1.132l-2.478-1.924l-1.463-0.677l-0.337-1.692l-3.237-3.604l-1.15-1.362l-1.574-1.692
		l-2.361-2.48l-9.106-7.667l-11.022-8.568l-4.388-3.609l-11.16-8.131l-5.196-4.41l-1.451-1.102l3.219-0.874l0.089-0.022
		l25.543-7.453h1.711l0.815-0.335l0.802-1.293l0.374-1.03l0.708-3.635l0.307-0.905l0.619-0.937l0.882-0.91l1.551-0.977l1.083-0.384
		l0.927-0.241l0.561-0.41l0.08-0.616l-0.187-0.633l-1.194-1.931l-0.241-0.821l0.187-0.941l0.561-1.044l1.074-1.405l0.909-2.132
		l2.945-2.542l12.319-6.118l37.315-4.842l1.257,0.357l0.962,0.495l0.869,0.691l0.646,0.803l0.454,0.856l0.267,0.847l0.187,0.887
		l0.241,0.829l0.454,0.803l0.708,0.691l7.133,4.366l0.708,0.803l0.401,0.843l1.631,5.994l0.414,0.763l1.648,1.467l4.99,5.637
		l6.795,5.517l6.888,7.105l6.051,7.784L394.679,472.241z"/>
	<path class="st0" d="M262.317,144.098l2.506-0.325l9.41,0.036l23.836,0.074l-0.467,12.252l-1.328,4.331l-0.976,1.724l-1.243,3.32
		l-0.348,1.693l0.094,1.216l1.337,1.818l0.468,0.789l0.361,0.811l0.735,2.509l0.428,0.798l0.686,0.169l1.257-0.245l44.978-15.533
		l0.749-0.013l0.361,0.223l0.82,3.431l0.281,1.889l-0.201,5.949l-0.174,1.101l-0.86,2.366l-0.414,2.027l-0.187,0.575l-0.187,0.347
		l-1.297,1.052l-0.414,0.481l-0.12,0.201l-0.12,0.227l-0.949,3.524l-0.294,0.695l-0.659,1.007l-0.388,0.472l-0.307,0.535
		l-0.174,0.401l-0.281,0.998l-0.12,0.307l-1.016,1.751l-0.374,0.829l-1.782,6.363l-0.254,2.264l-0.16,0.708l-0.134,0.397
		l-0.281,0.361l-0.294,0.298l-0.468,0.365l-0.187,0.486l-0.174,0.86l0.615,2.865l0.08,0.998l-0.053,0.477l-0.107,0.432l-0.441,1.056
		l-0.628,0.771l-0.321,0.254l-0.187,0.196l-0.535,0.766l-0.548,0.49l-1.622-0.281l-0.348-0.022l-0.321,0.076l-2.633,1.243
		l-1.288,0.241h-0.548l-3.44,0.437l-1.23-0.04l-0.508,0.214l-0.201,0.29l-0.12,0.802l0.04,1.221l-0.187,0.637l-0.294,0.512
		l-0.334,0.397l-1.497,1.368l-0.174,0.241l-0.307,0.539l-0.08,0.236l-0.044,0.25l0.027,0.74l0.053,0.339l0.192,0.615l0.762,1.595
		l0.053,0.722l-0.401,0.811l-2.37,1.185l-0.722,0.517l-0.922,1.15l-1.769,1.8l-1.43,0.824l-1.002,1.163v0.223l0.334,0.896
		l0.321,1.72l0.08,0.829l-0.067,0.388l-0.321,0.343l-0.388,0.16l-0.722,0.183l-0.575,0.312l-0.214,0.477l-0.053,0.441l0.013,0.428
		l-0.388,0.432l-10.426,8.163l-1.043,0.655l-1.577,0.637l-6.18,3.68l-0.994,0.887l-2.914,3.56l-1.876,1.591l-10.435,6.585
		l-7.851,3.262l-1.515,0.12l-0.468-0.548l-0.174-0.762l-0.16-1.684l-0.334-0.838l-0.575-2.562l-0.374-0.811l-0.655-0.713
		l-0.749-0.45l-0.806-0.312l-1.644-0.129l-0.829-0.285l-0.855-0.41l-0.882-0.241l-0.86,0.16l-0.855,0.891l-0.682,0.855l-1.096,1.087
		l-1.47,1.051l-2.651,1.448l-1.457,0.205l-0.98-0.299l-1.751-1.519l-0.802-0.147l-1.484,0.94l-2.13,1.065l-0.869,0.143l-2.571,0.125
		l-0.855,0.209l-3.502,1.332l-3.359,1.698l-0.855,0.254l-0.695,0.365l-0.472,0.726l1.221,11.077l-0.508,2.108l-3.948-4.817
		l-2.771-1.907l-2.887-1.372l-0.82-0.192l-1.631-0.134l-1.109-0.699l-1.27-1.257l-4.455-5.975l-0.775-1.702l-1.916-7.214
		l-1.163-1.127l-0.02-0.019l-0.037-5.914l0.645-1.81l1.944-3.859l0.414-1.74l0.091-0.947l0.379-1.845l0.063-1.038l-0.196-0.793
		l-0.982-2.207l0.098-1.077l0.267-1.028l0.477-0.926l0.653-0.821l0.428-0.81l-0.154-0.747l-0.393-0.695l-0.196-0.663l-0.112-1.842
		l-3.031-16.324l-0.982-2.779l0.274-0.779l0.442-2.28l0.168-0.477l0.379-0.253l2.751-2.442l0.933-0.246l0.835,0.611l0.744,1.684
		l0.358,2.108l-0.175,1.747l-0.828,3.21l0.161,1.003l0.386,0.947l0.042,0.712l-0.884,0.277l-0.449,0.372l-0.168,0.856l0.07,1
		l0.253,0.779l0.751-0.691l0.463-0.772l0.526-0.632l0.968-0.263l2.821,0.021l0.421,0.274l0.463,1.112l2.259,2.21l0.8,1.677
		l0.295,3.263l0.547,0.484l0.709,0.453l0.596-0.011l0.267-0.926l-0.477-3.691l0.098-1.551l0.912-1.551l4.266,1.2l1.095,0.568
		l0.463,0.947l0.73,2.993l0.561,0.817l0.379-0.596l2.428-2.414l0.786-0.568l1.305,0.067l0.758,0.53l0.884,1.754l4.294-0.716
		l3.143,3.189l2.645,4.171l2.814,2.238l-3.157-5.768l-1.235-1.621l-0.232-1.41l1.684-0.768l2.224,0.105l1.354,1.221l1.059-0.663
		l1.593-2.07l0.933-0.905l3.031-1.915l1.088-0.386l1.389,0.025l2.519,0.926l1.396,0.284l1.27-0.112l3.487-1.123v-0.645l-4.329,0.098
		l-1.691-0.491l-1.684-1.375l-1.326,0.877l-1.6,0.772l-1.698,0.554l-6.659,0.407l-1.137,0.396l-3.88-1.323l-1.088-0.74l-1.298-1.168
		l-0.702-0.4l-2.736,0.091l-0.926-0.439l-4.126-3.091l-2.989-1.772l-1.235-1.266l-0.491-1.723h-0.589l-0.491,1.049l-0.491,0.309
		l-1.081-0.182l-0.702,0.211l-1.937,0.856l-0.603,0.116l-0.688-0.989l-0.512-3.073l-0.919-0.652l-1.221-1.232l-4.133-9.483
		l-1.095-1.621l-2.4-2.705l-1.607-0.789l-1.516,0.116l-1.347-0.063l-1.151-1.347l-0.07-1.263l0.344-4.751l0.611-1.049l1.873-0.189
		l1.944-0.403l0.968-0.396l1.754-1.01l0.884-0.358l1.151-0.147l0.751,0.207l0.765,0.316l1.172,0.161l0.709-0.182l1.165-0.814
		l1.579-0.614l1.354-0.853l1.53-0.663l1.642,0.179l1.41,1.4l0.639,1.989l-0.309,1.779l-1.445,0.779l-3.747-0.8l-1.831,0.232
		l-1.186,1.744l1.993-0.611l2.526,0.154l2.021,1.112l0.519,2.284l1.024-0.326l0.758-0.6l0.449-0.877l0.126-1.137l1.039,1.382
		l0.154,2.512l-0.449,2.466l-0.744,1.295l0.821,2.452l0.695,0.754l1.473,0.319l-0.379-1.365l0.014-1.754l0.421-1.533l0.772-0.642
		l0.547-0.768l0.884-3.743l0.688-1.375l-1.179-1.712l-0.295-1.775l0.295-4.224l-0.884-10.217l-3.052-8.098l-0.245-2.074
		l-0.379-1.386l-0.73-0.888l-0.477-1.007l0.421-1.751l1.081-1.835l1.13-0.86l1.263-0.253h1.558l1.523-0.432l0.835-1.039l0.589-1.179
		l0.849-0.877l1.551-0.267l5.031,0.133l1.389,0.428l1.158,1.888l0.723,3.691l0.793,1.832l0.709-1.467l0.337-1.08l2.564,0.296
		l1.337,0.49l1.426,1.007l2.237,2.558l1.426,1.105l1.524,0.651l1.533,0.232l1.372-0.303l1.016-0.989l0.312-1.132l0.009-2.553
		l0.454-1.261L262.317,144.098z"/>
	<path class="st0" d="M258.983,467.097l-5.111-3.882l-15.289-18.906l-1.866-3.308l1.572,1.187l2.463,2.627l1.859,0.955l1.993,0.225
		l1.179-0.744l1.081-1.391l1.635-1.678l-0.217,1.215l-0.407,0.969l-0.239,0.927l0.274,1.068l0.456-0.155l0.344-0.239l0.253-0.351
		l0.175-0.435l-0.028,1.573l0.267,1.615l0.73,0.899l1.34-0.548l3.08,1.082l0.498,0.393l0.175,0.035l1.277,1.974l0.316,1.868h0.589
		l0.161-0.843l0.309-0.386l0.505,0.077l0.793,0.513l0.105-0.316v-0.147l0.084-0.063l0.4-0.063l0.274,3.161l0.316,1.018l0.589-0.66
		l0.681-0.4l0.793-0.176l0.877,0.056l-0.288,1.215l0.337,0.288l0.758-0.337l0.961-0.625l0.66-0.695l0.652-1.587l0.505-0.667
		l1.242-0.457l1.895-0.281l1.789-0.056l0.961,0.204l2.259-0.232l0.786-0.4l0.491-1.089l-1.642-0.983l-0.667-0.239l0.168-1.615
		l-1.684-0.857l-2.098-0.801l-1.144-1.447h-0.589l0.589,1.531l1.179,4.411l-1.221-0.183l-0.674-0.632l-0.414-0.688l-0.379-0.309
		l-0.688-0.365l-0.968-1.622l-0.688-0.372l-0.653-0.091l-1.06-0.4L263,446.36l-0.316,0.225l0.035,0.506l0.098,0.569l-0.084,0.421
		l-0.589,0.653l-0.554,0.822l-0.428,0.843l-0.246,0.723l-1.214-0.52l-1.095-0.702l0.337-0.885l-0.512-1.784l0.175-0.871l0.793-0.407
		l1.01,0.028l0.849-0.07l0.295-0.73l-1.017-0.843l-2.21-0.73l-2.379-0.407l-1.516,0.162l-1.944-3.982l-0.14-0.674l-0.884-0.611
		h-0.421l-0.189,0.878l-0.316,0.056l-1.249,0.667l-0.154,0.133l-2.196-0.449l-2.056,1.545l-1.965,1.889l-2.021,0.548l-0.828-0.464
		l-0.786-0.794l-0.561-0.976l-0.238-1.032l0.21-0.274l1.003-0.92l0.295-0.197l0.484-0.267l-0.674-0.534l-0.954-0.443l-0.365,0.007
		l-0.14-0.716l0.133-0.688l0.007-0.583l-0.533-0.372l-0.73-0.112l-0.561,0.056l-0.379,0.295l-0.154,0.597l1.088,2.044l0.295,1.278
		l-0.793,1.103l-1.361-0.59l-3.607-4.319l-1.502-0.99l0.8,1.243l1.908,2.303l0.772,1.222l-1.923-1.292l-2.301-2.233l-1.965-2.549
		l-0.884-2.226v-0.478l-0.66-1.973l-0.505-7.837l-0.645-1.264l-8.553-8.426l-2.308-1.306l-2.617-3.11l-1.228-0.983l0.239-0.337
		l0.351-0.857l-1.866-0.505l-1.066-1.503l-1.193-3.286l-3.613-3.552l-0.568-0.899l-0.393-0.133l-0.814-0.737l-0.73-0.821
		l-0.112-0.386l-0.919-0.414l0.203-0.835l0.631-0.562l0.379,0.337l0.639,1.573l1.579,1.221l1.958,0.625l1.761-0.19l-0.203,0.351
		l-0.105,0.07l-0.105,0.028l-0.232,0.204l1.123,0.463l0.617-0.463l0.66-1.818h0.533l0.646,1.818l-0.505,0.176l-0.379,0.239
		l-0.21,0.386l-0.084,0.611l0.295,0.527l0.589-0.379l0.442-0.667l-0.147-0.351h4.42l2.4,0.59l1.207,1.439l-0.217,1.762l-1.915,1.559
		l1.031,1.137l0.554,0.449l0.498,0.182l1.873,0.168l0.484,0.126l0.218,0.513l-0.007,1.495l0.119,0.646l1.754,1.165l0.056,0.407
		l0.428,1.053l0.463,0.702l0.232-0.66l0.274-0.435l1.214-0.456l0.281-0.288l-0.232-1.545l-0.568-1.727l-0.744-1.201l-0.814,0.035
		l-0.94-1.095l-2.112-1.46l-0.484-0.983l1.01-1.516l0.821-0.562l-0.133-0.569l-2.807-4.837l-1.6-1.643l-0.87,0.828l-1.326-0.772
		l-0.442-0.407l-0.309,0.807l-0.007,0.821l0.316,1.909l-1.614-1.32l-2.189-4.023l-1.502-0.611l-0.632,0.569l-0.407,1.011
		l-0.253,0.976l-0.203,0.449l-0.821,0.267l-0.477,0.702l-0.182,0.934l0.042,1.046l-0.624-0.632l-0.667-0.414l-0.765-0.19h-0.947
		l0.996-1.713l-0.196-0.969l-1.965-1.446l-1.894,1.236l-1.277-0.449l-0.73-1.699l-0.225-2.562l0.07-1.011l0.365-1.509l0.084-0.723
		v-3.559l-0.154-0.941l-0.758-1.923l-0.253-0.99l0.098-2.674l-0.098-0.863l-1.445-3.58l-1.965-2.716l-4.778-4.941l-10.798-15.104
		l-0.821-1.495l-0.877-2.141l-0.744-1.895l-0.407-1.797l1.151,2.302l0.877,2.569l1.059,1.502l1.67,1.867l1.333-0.133l1.347,0.589
		l1.074,1.018l0.884,2.723l2.021,2.106l0.463,1.684l0.54,0.849l2.722,3.376l1.158,0.751l0.526,0.568l4.147,3.341l0.723,0.386
		l2.54,0.758l0.821,10.718l0.526,1.334l1.024-0.463l0.253-0.884l-0.786-1.179l0.238-0.639l0.758-0.33l0.646,0.337l0.463,0.709
		l0.183,0.758l1.291-1.474l2.021-1.172l2.308-0.716l2.098-0.176l-0.498,1.348l-0.105,1.453l0.484,1.249l1.284,0.716l0.611-2.913
		l-0.042-1.425l-0.568-1.018l2.694-0.372l7.136,0.962l2.589-0.59l-3.557-1.369l-1.368-1.025l-1.024-1.727l-0.8-3.215l-0.098-1.881
		l0.365-1.432l-0.702-0.218l-1.698-0.962l-0.379-0.049l-1.095,0.049l-0.618,0.225l-0.042,0.548l0.365,1.284l-0.126,0.884
		l-0.295,0.442l-0.365,0.295l-2.147,2.878l-1.979,1.418l-2.343,0.695l-2.807,0.218l-0.575,0.119l-0.547,0.175l-0.561,0.042
		l-0.66-0.337l-0.477-0.639l-0.105-1.39l-0.611-1.263l-0.07-0.793l0.07-1.565l-0.358-0.428l-0.793-0.203l-0.828-0.105l-0.435-0.147
		l-0.154-1.355l0.695-0.912l1.263-0.512l1.508-0.161l0.723-0.512l0.147-1.172l-0.351-1.221l-0.814-0.681v-0.54l0.772-0.211
		l2.063-0.197l0.688-0.232l0.688-0.842l0.386-1.635l1.368-2.513l-0.281-1.488l-1.572-2.997l0.463-0.526l0.084-0.4l-0.337-0.379
		l-0.8-0.463l-0.042,1.719l0.632,4.506l-0.239,0.927l-0.632,0.856l-0.856,0.632l-0.926,0.253l-0.779-0.267l-0.716-1.193
		l-0.568-0.309l-1.403,0.477l-0.87,1.221l-0.688,1.263l-0.891,0.576l-4.133,0.772l-1.431-0.19l-0.961-1.137l-0.274-1.811
		l0.147-1.677l0.232-0.723l-0.197-0.119l-0.589-0.547l-0.309-0.547l-0.407,0.154l-0.498,0.337l-0.842,0.351l-0.168,0.337
		l-0.379,0.225l-1.102-0.189l-1.256-0.716l-3.031-2.274l-1.312-0.498l-1.046-0.59l-0.758-1.432l-0.21-1.755l0.596-1.572
		l-0.281-0.309l-0.147-0.239l-0.21-0.576l1.677-1.221l-0.407-2.007l-1.488-2.035l-1.6-1.263l1.081,2.597l-0.505,2.33l-0.295,0.779
		l-0.547-0.084l-0.281-0.926l-0.632-5.285l-1.459-3.79l-8.553-10.99l2.238,2.119l1.235,0.603l1.291-0.421l-1.228-0.533l0.512-1.158
		l0.716-0.989l0.688-0.646l0.435-0.14l-1.01-0.449l-2.526,1.712l-1.488-0.379l-0.568-1.382l-0.547-2.126l-0.652-1.474l-0.856,0.561
		h-0.639l-0.737-3.074l-0.449-1.053l-1.305-2.225l-2.273-5.144l-1.845-3.151l-1.144-4.54l-2.652-3.424l-2.014-6.35l1.172-1.81
		l0.639,0.632l-0.765,1.663l0.94,0.744l2.779,0.54l-0.379,0.779l-0.084,0.526l0.14,0.428l0.323,0.575l1.852-0.056l1.298,2.105
		l0.723,2.947l0.393,3.607l0.491,1.263l0.835,1.01l1.2,0.407l0.674,0.589l0.182,1.27l0.421,1.2l1.403,0.421l-0.758-1.474
		l0.084-1.446l0.414-1.523l0.26-1.719l0.463-1.221l1.151-0.098l1.516,0.337l1.516,0.084v-0.59l-0.842-0.393l-0.884-0.695
		l-0.589-0.905l0.021-1.01l0.632-0.561l0.835,0.07l2.077,0.982l0.856,1.214l0.646,1.473l0.26,1.312l0.653,1.712l3.115,2.905
		l0.989,1.544l0.042,1.74l-0.596,3.031l0.554,1.221h0.589l0.372-1.614l0.218-5.235l0.47-1.628l2.056-2.252l0.463-1.424l-0.084-1.179
		l-0.126-0.491l0.126-0.316l0.632-0.681l0.505-0.323l1.424-0.491l0.47-0.316l0.232-0.891l-0.168-0.912l0.105-0.758l1.01-0.435
		l1.179,2.302l-0.175-2.007l-1.003-1.375l-0.716-1.439l0.716-2.238l5.101-4.561l1.551-3.101l7.711-8.49l2.133-3.333l1.235-3.572
		l-0.033-5.229l0.02,0.019l1.163,1.127l1.916,7.214l0.775,1.702l4.455,5.975l1.27,1.257l1.109,0.699l1.631,0.134l0.82,0.192
		l2.887,1.372l2.771,1.907l3.948,4.817l5.645,17.997l3.533,4.746l1.818,0.838l1.123,0.691l0.815,0.628l0.334,0.187l0.913,0.904
		l0.468,0.949l0.722,0.597l0.815,0.294l0.856,0.053l2.344-0.201l0.494,0.031l0.722,0.143l3.253,0.192l1.684-0.107l0.855,0.196
		l1.083,0.548l2.985,2.455l0.695,1.109l0.348,1.025l-0.067,0.842l-0.628,1.52l-0.04,0.606l0.107,0.463l1.417,3.373l0.147,0.882
		l-0.027,0.887l-0.147,0.918l-0.602,1.756l-2.246,4.211l-0.187,0.811l0.094,0.784l0.775,0.954l5.298,4.871l0.789,0.481l0.695,0.312
		l0.495,0.165l4.014,0.642l1.404,0.664l-0.468,3.454l-1.216,2.496l-6.06,5.807l-0.508,0.98l-0.294,0.94l-0.04,1.658l0.174,1.698
		l0.936,4.453l0.08,1.199l-0.12,1.529l-0.521,2.71l-0.749,1.756l-0.699,1.132l-0.789,0.388l-0.802,0.125l-0.815,0.036l-0.882,0.201
		l-0.829,0.539l-0.847,1.052l-0.201,0.918l-0.053,0.842l-0.495,0.762l-0.735,0.615l-0.802,0.842l0.12,0.731l1.23,1.297l1.194,1.636
		l0.495,0.874l1.029,2.692l0.481,0.856l2.878,3.495l0.775,0.767l0.815,0.602l0.789,0.352l0.762,0.08l2.865,0.067l1.751,0.272
		l4.309,1.4l2.758,1.493l2.713,0.735l1.969,1.36l0.909,0.459l0.962,0.878l0.896,0.437h1.715l6.073,1.476l0.936,0.036l0.896-0.169
		l0.842-0.428l0.762-0.615l0.806-0.468l0.815,0.027l3.627,1.979l1.778,1.489l1.738,0.602l0.909,0.589l0.272,0.865l-0.134,0.869
		l-1.074,2.809l-0.134,0.927v0.976l0.267,1.226l0.481,0.941l0.753,0.825l1.564,1.132l0.307,0.348l0.187,0.428l1.591,5.925
		l0.535,1.262l2.33,3.415l0.321,0.37l0.348,0.294l0.388,0.219l1.283,1.462l3.466,5.529l-12.319,6.118l-2.945,2.542l-0.909,2.132
		l-1.074,1.405l-0.561,1.044l-0.187,0.941l0.241,0.821l1.194,1.931l0.187,0.633l-0.08,0.616l-0.561,0.41l-0.927,0.241l-1.083,0.384
		l-1.551,0.977l-0.882,0.91l-0.619,0.937l-0.307,0.905l-0.708,3.635l-0.374,1.03l-0.802,1.293l-0.815,0.335h-1.711l-25.543,7.453
		l-0.089,0.022L258.983,467.097z M175.826,284.413l3.122,0.674l0.695,2.968l-0.316,3.642l0.077,2.73l-1.53,1.018l-1.242,0.568
		l-1.179-0.084l-1.347-0.912l-0.758-1.137l-0.007-1.081l0.238-1.151V290.3l-0.393-0.744l-1.186-1.249l-0.295-0.954v-0.954
		l0.189-0.66l0.989-1.326l0.968-0.919l1.873-1.144l0.737-0.933l0.463,0.856l0.035,0.709l-0.393,0.512l-0.744,0.281V284.413z"/>
	<path class="st0" d="M398.755,210.459l-0.414,2.762l0.147,1.221l-0.307,1.172l-0.508,0.904l-1.671,1.377l-1.016,0.695l-1.234,1.038
		l-0.949,0.374l-1.47,0.254l-12.124,6.3l-1.256,1.185l-2.179,1.6l-0.708,0.842l-0.753,2.691l-1.444,2.713l-0.214,0.864l0.013,0.775
		l0.294,0.704l0.281,0.414l0.481,0.446l0.735,0.201l0.82,0.12l0.762,0.267l0.575,0.548l0.294,0.637l0.695,2.905l0.348,3.885
		l-0.267,2.464l-0.013,2.045l0.147,0.864l0.267,0.847l0.455,0.833l4.482,6.715l0.454,0.882l0.241,1.136l0.094,1.359l-0.094,2.161
		l0.187,1.337l1.341,4.442l0.508,0.936l0.708,0.824l3.212,2.669l0.735,0.824l1.043,1.533l1.297,2.78l1.363,6.973l0.298,0.842
		l2.593,5.445l-7.49-0.33l-2.811-0.419l-5.084-1.769l-4.99-2.366l-13.246-10.208l-1.15-0.267l-1.016,0.018l-3.493,0.789
		l-15.452,0.887l-1.729,0.472l-0.896,0.374l-0.775,0.557l-1.163,1.439l-0.708,0.432l-0.789-0.254l-1.836-1.27l-0.882,0.009
		l-0.775,0.454l-1.069,1.497l-0.807,0.615l-1.136,0.316l-0.922-0.196l-0.775-0.624l-0.468-0.78l-0.722-0.878l-0.927-0.343
		l-1.243-0.187l-0.949,0.103l-0.855,0.397l-0.642,0.548l-0.953,0.392l-2.032-0.446l-0.495,0.401l0.08,0.668l1.043,1.644l0.254,0.802
		l-0.241,0.726l-0.602,0.561l-0.735,0.561l-0.695,0.762l-2.491,3.725l-0.815,0.869l-0.989,0.887l-4.362,2.602l-0.842,0.735
		l-0.535,0.78l-0.762,2.709l-0.312,1.707l-0.027,0.824l0.232,1.671l-0.218,0.842l-3.462,5.971l-0.414,0.441l-0.708,0.454
		l-3.172,1.493l-0.414,0.334l-0.134,0.272l-0.013,0.414l0.348,0.633l0.468,0.655l0.201,0.807l-0.174,0.838l-0.428,0.865
		l-1.176,1.618l-0.726,0.731l-0.468,0.789l-0.187,0.798l-0.04,0.833l-0.201,0.749l-0.481,0.673l-0.909,0.392l-0.388,0.677
		l-0.201,0.793l-0.307,0.784l-0.628,0.677l-0.98-0.891l-0.976-0.544l-5.084-0.098l-2.045-0.441l-1.381-0.129l-2.152,0.134
		l-1.323,0.383l-1.141,0.468l-2.593,1.653l-7.401,7.621l-1.404-0.664l-4.014-0.642l-0.495-0.165l-0.695-0.312l-0.789-0.481
		l-5.298-4.871l-0.775-0.954l-0.094-0.784l0.187-0.811l2.246-4.211l0.602-1.756l0.147-0.918l0.027-0.887l-0.147-0.882l-1.417-3.373
		l-0.107-0.463l0.04-0.606l0.628-1.52l0.067-0.842l-0.348-1.025l-0.695-1.109l-2.985-2.455l-1.083-0.548l-0.855-0.196l-1.684,0.107
		l-3.253-0.192l-0.722-0.143l-0.494-0.031l-2.344,0.201l-0.856-0.053l-0.815-0.294l-0.722-0.597l-0.468-0.949l-0.913-0.904
		l-0.334-0.187l-0.815-0.628l-1.123-0.691l-1.818-0.838l-3.533-4.746l-5.645-17.997l0.508-2.108l-1.221-11.077l0.472-0.726
		l0.695-0.365l0.855-0.254l3.359-1.698l3.502-1.332l0.855-0.209l2.571-0.125l0.869-0.143l2.13-1.065l1.484-0.94l0.802,0.147
		l1.751,1.519l0.98,0.299l1.457-0.205l2.651-1.448l1.47-1.051l1.096-1.087l0.682-0.855l0.855-0.891l0.86-0.16l0.882,0.241
		l0.855,0.41l0.829,0.285l1.644,0.129l0.806,0.312l0.749,0.45l0.655,0.713l0.374,0.811l0.575,2.562l0.334,0.838l0.16,1.684
		l0.174,0.762l0.468,0.548l1.515-0.12l7.851-3.262l10.435-6.585l1.876-1.591l2.914-3.56l0.994-0.887l6.18-3.68l1.577-0.637
		l1.043-0.655l10.426-8.163l0.388-0.432l-0.013-0.428l0.053-0.441l0.214-0.477l0.575-0.312l0.722-0.183l0.388-0.16l0.321-0.343
		l0.067-0.388l-0.08-0.829l-0.321-1.72l-0.334-0.896v-0.223l1.002-1.163l1.43-0.824l1.769-1.8l0.922-1.15l0.722-0.517l2.37-1.185
		l0.401-0.811l-0.053-0.722l-0.762-1.595l-0.192-0.615l-0.053-0.339l-0.027-0.74l0.044-0.25l0.08-0.236l0.307-0.539l0.174-0.241
		l1.497-1.368l0.334-0.397l0.294-0.512l0.187-0.637l-0.04-1.221l0.12-0.802l0.201-0.29l0.508-0.214l1.23,0.04l3.44-0.437h0.548
		l1.288-0.241l2.633-1.243l0.321-0.076l0.348,0.022l1.622,0.281L398.755,210.459z"/>
</g>
<g id="Copyright">
	<text transform="matrix(1 0 0 1 681.6426 577.5916)" class="st1 st2">© Vemaps.com</text>
</g>
</svg>
